<svg width="1031" height="230" viewBox="0 0 1031 230" fill="none" xmlns="http://www.w3.org/2000/svg">
<path fill-rule="evenodd" clip-rule="evenodd" d="M95.931 7.29423C90.1441 10.4851 88.1196 19.7351 91.9389 25.5388C95.8175 31.433 104.063 33.2071 109.81 29.3841C116.999 24.6026 116.922 12.1005 109.677 7.61518C106.431 5.60613 99.2952 5.43944 95.931 7.29423ZM176.208 62.8987L175.983 118.081L169.078 85.7289C165.279 67.9347 161.46 51.9207 160.59 50.1413C158.656 46.1906 153.931 43.0804 149.055 42.5502C144.092 42.0111 138.23 45.2118 135.603 49.8966C133.684 53.3216 133.652 53.905 133.574 87.0677L133.495 120.759L125.28 84.9584C116.421 46.3484 115.915 44.9494 109.742 41.9757C103.071 38.7617 94.7607 41.4774 91.0803 48.0746C89.1406 51.5519 89.1109 52.083 89.0288 84.4078C88.9825 102.45 88.7135 116.614 88.4314 115.882C88.1485 115.151 84.8935 100.06 81.1991 82.3474C76.4812 59.7344 73.9651 49.4356 72.7494 47.7696C69.6996 43.5893 65.6576 41.4073 60.9625 41.4073C55.6917 41.4073 52.3607 43.0777 49.1721 47.3219C47.5829 49.4361 46.7157 52.0054 46.6986 54.6502L46.2882 118.261L45.8515 185.945L31.0175 170.865L16.1834 155.787L8.09171 163.967C3.64106 168.466 0 172.563 0 173.073C0 174.571 46.4585 221.055 49.5197 222.62C55.9092 225.886 65.1144 223.099 68.2323 216.956C69.6175 214.227 69.8899 210.115 70.4934 182.821L71.179 151.79L77.5991 182.378C81.4184 200.571 84.7336 214.271 85.7808 216.186C89.3432 222.7 98.5162 225.155 104.788 221.273C112.031 216.792 111.989 217.034 112.58 175.901L113.1 139.722L121.671 177.231C126.747 199.449 130.874 215.643 131.795 216.956C137.76 225.465 149.493 225.326 155.815 216.671C157.569 214.269 157.659 212.885 158.079 182.183L158.515 150.197L165.631 182.647C170.614 205.373 173.292 215.873 174.566 217.69C180.232 225.769 194.431 224.611 198.583 215.731C199.865 212.987 200 202.933 200 110.207V7.71625H188.217H176.432L176.208 62.8987Z" fill="url(#paint0_linear_52_9)"/>
<path d="M241.647 96.5728L240.859 88.1951C241.384 88.2428 241.886 88.2905 242.363 88.3383C242.888 88.386 243.294 88.4099 243.58 88.4099C245.776 88.4099 247.447 88.0757 248.593 87.4074C249.786 86.7391 250.598 85.7366 251.027 84.4C251.457 83.0156 251.672 81.2494 251.672 79.1012V48.7407H260.765V79.1012C260.765 82.8247 260.24 85.9992 259.19 88.6247C258.14 91.2502 256.469 93.279 254.178 94.7111C251.886 96.0955 248.831 96.7877 245.012 96.7877C244.63 96.7877 244.177 96.7638 243.652 96.716C243.127 96.6683 242.458 96.6206 241.647 96.5728ZM290.214 96.9309C286.347 96.9309 282.862 96.0477 279.759 94.2815C276.704 92.5152 274.293 89.842 272.527 86.2617C270.761 82.6815 269.878 78.1942 269.878 72.8C269.878 68.8856 270.379 65.4008 271.381 62.3457C272.384 59.2428 273.864 56.6173 275.821 54.4691C277.778 52.2732 280.165 50.6263 282.981 49.5284C285.798 48.3827 289.068 47.8099 292.791 47.8099C295.608 47.8099 298.138 48.144 300.381 48.8123C302.673 49.4329 304.654 50.3638 306.325 51.6049C307.995 52.8461 309.308 54.3498 310.263 56.116C311.218 57.8823 311.767 59.8872 311.91 62.1308L303.317 64.7086C303.222 62.5605 302.649 60.7942 301.599 59.4099C300.596 58.0255 299.284 56.9992 297.66 56.3308C296.085 55.6625 294.367 55.3284 292.505 55.3284C289.784 55.3284 287.445 55.9251 285.488 57.1185C283.53 58.3119 282.027 60.1736 280.977 62.7037C279.926 65.2337 279.401 68.4798 279.401 72.442C279.401 75.4494 279.711 78.051 280.332 80.2469C280.953 82.3951 281.836 84.1613 282.981 85.5457C284.127 86.8823 285.511 87.8848 287.135 88.5531C288.758 89.1737 290.548 89.4839 292.505 89.4839C294.749 89.4839 296.682 89.1021 298.305 88.3383C299.976 87.5745 301.288 86.3811 302.243 84.758C303.246 83.135 303.842 81.0823 304.033 78.6H294.438V71.8691H312.984V80.0321V96H306.396L306.969 83.6123H305.752C305.036 86.572 304.033 89.0543 302.744 91.0593C301.456 93.0165 299.785 94.4963 297.732 95.4988C295.679 96.4535 293.173 96.9309 290.214 96.9309ZM341.19 96.9309C337.323 96.9309 333.839 96.0477 330.736 94.2815C327.681 92.5152 325.27 89.842 323.504 86.2617C321.737 82.6815 320.854 78.1942 320.854 72.8C320.854 68.8856 321.356 65.4008 322.358 62.3457C323.36 59.2428 324.84 56.6173 326.798 54.4691C328.755 52.2732 331.142 50.6263 333.958 49.5284C336.774 48.3827 340.044 47.8099 343.768 47.8099C346.584 47.8099 349.114 48.144 351.358 48.8123C353.649 49.4329 355.63 50.3638 357.301 51.6049C358.972 52.8461 360.285 54.3498 361.24 56.116C362.194 57.8823 362.743 59.8872 362.886 62.1308L354.294 64.7086C354.198 62.5605 353.626 60.7942 352.575 59.4099C351.573 58.0255 350.26 56.9992 348.637 56.3308C347.062 55.6625 345.343 55.3284 343.481 55.3284C340.761 55.3284 338.421 55.9251 336.464 57.1185C334.507 58.3119 333.003 60.1736 331.953 62.7037C330.903 65.2337 330.378 68.4798 330.378 72.442C330.378 75.4494 330.688 78.051 331.309 80.2469C331.929 82.3951 332.812 84.1613 333.958 85.5457C335.104 86.8823 336.488 87.8848 338.111 88.5531C339.734 89.1737 341.524 89.4839 343.481 89.4839C345.725 89.4839 347.658 89.1021 349.281 88.3383C350.952 87.5745 352.265 86.3811 353.22 84.758C354.222 83.135 354.819 81.0823 355.01 78.6H345.415V71.8691H363.961V80.0321V96H357.373L357.946 83.6123H356.728C356.012 86.572 355.01 89.0543 353.721 91.0593C352.432 93.0165 350.761 94.4963 348.709 95.4988C346.656 96.4535 344.15 96.9309 341.19 96.9309ZM373.691 96V48.7407H382.713V96H373.691ZM375.768 96V88.2667H403.407V96H375.768ZM448.167 96.9309C444.587 96.9309 441.388 96.4296 438.572 95.4272C435.755 94.377 433.368 92.8494 431.411 90.8444C429.454 88.7918 427.95 86.2617 426.9 83.2543C425.85 80.2469 425.325 76.8099 425.325 72.9432C425.325 68.9333 425.85 65.3769 426.9 62.2741C427.998 59.1712 429.526 56.5457 431.483 54.3975C433.44 52.2016 435.779 50.5547 438.5 49.4568C441.221 48.3588 444.252 47.8099 447.594 47.8099C450.172 47.8099 452.559 48.144 454.754 48.8123C456.95 49.4806 458.836 50.4831 460.411 51.8197C462.034 53.1086 463.299 54.6839 464.206 56.5457C465.113 58.3597 465.591 60.4362 465.638 62.7753L457.189 64.995C457.237 62.8469 456.783 61.0568 455.829 59.6247C454.874 58.1926 453.633 57.1185 452.105 56.4024C450.625 55.6864 449.026 55.3284 447.308 55.3284C445.78 55.3284 444.252 55.6387 442.725 56.2592C441.245 56.8798 439.908 57.8584 438.715 59.195C437.522 60.5317 436.567 62.2979 435.851 64.4938C435.135 66.642 434.777 69.2913 434.777 72.442C434.777 76.4518 435.35 79.6979 436.495 82.1802C437.689 84.6625 439.312 86.5004 441.364 87.6938C443.465 88.8395 445.828 89.4123 448.453 89.4123C451.127 89.4123 453.251 88.8872 454.826 87.837C456.401 86.7391 457.547 85.307 458.263 83.5407C458.979 81.7267 459.385 79.7695 459.48 77.6691L467.429 79.0296C467.381 81.5119 466.999 83.851 466.283 86.0469C465.567 88.2428 464.445 90.1523 462.917 91.7753C461.438 93.3984 459.48 94.6634 457.046 95.5704C454.611 96.4774 451.652 96.9309 448.167 96.9309ZM506.511 96V48.7407H515.533V96H506.511ZM475.434 96V48.7407H484.457V96H475.434ZM480.518 75.7358V68.2889H510.091V75.7358H480.518ZM522.681 96L539.007 48.7407H552.254L568.58 96H558.698L546.167 55.9728H545.165L532.491 96H522.681ZM531.345 86.2617V79.8889H561.133V86.2617H531.345ZM575.639 96V48.7407H587.454L610.081 83.8988H610.726L610.153 48.7407H618.96V96H608.22L584.59 59.4815H583.874L584.447 96H575.639ZM630.112 96V48.7407H641.927L664.554 83.8988H665.199L664.626 48.7407H673.433V96H662.693L639.063 59.4815H638.347L638.92 96H630.112ZM684.585 96V48.7407H693.679V96H684.585ZM690.457 96V88.5531H719.886V96H690.457ZM690.457 75.4494V68.5753H716.378V75.4494H690.457ZM690.457 56.1876V48.7407H719.743V56.1876H690.457ZM728.289 96V48.7407H737.312V96H728.289ZM730.366 96V88.2667H758.005V96H730.366ZM782.056 96.9309C778.953 96.9309 776.185 96.6206 773.75 96C771.316 95.4272 769.239 94.5202 767.521 93.279C765.85 91.9901 764.561 90.4387 763.654 88.6247C762.747 86.763 762.269 84.5909 762.222 82.1086L770.242 79.7457C770.194 82.037 770.671 83.9465 771.674 85.4741C772.676 86.9539 774.108 88.0518 775.97 88.7679C777.879 89.4839 780.051 89.842 782.486 89.842C784.825 89.842 786.782 89.5556 788.358 88.9827C789.981 88.4099 791.198 87.6461 792.009 86.6914C792.821 85.6889 793.227 84.5671 793.227 83.3259C793.227 81.9416 792.725 80.8436 791.723 80.0321C790.721 79.1728 789.36 78.4806 787.642 77.9555C785.971 77.3827 784.061 76.8576 781.913 76.3802C779.574 75.8551 777.283 75.2823 775.039 74.6617C772.843 74.0411 770.838 73.2057 769.024 72.1555C767.21 71.1053 765.754 69.7687 764.656 68.1457C763.606 66.4749 763.081 64.3745 763.081 61.8444C763.081 58.9802 763.797 56.5218 765.229 54.4691C766.661 52.3687 768.738 50.7457 771.459 49.6C774.228 48.4066 777.521 47.8099 781.34 47.8099C785.111 47.8099 788.405 48.3827 791.222 49.5284C794.038 50.6263 796.234 52.2494 797.809 54.3975C799.385 56.5457 800.22 59.0757 800.316 61.9876L792.081 64.279C792.081 62.7037 791.818 61.3432 791.293 60.1975C790.816 59.0041 790.1 58.0255 789.145 57.2617C788.19 56.4502 787.045 55.8535 785.708 55.4716C784.419 55.0897 782.939 54.8987 781.269 54.8987C779.311 54.8987 777.593 55.1613 776.113 55.6864C774.681 56.2115 773.583 56.9514 772.819 57.9062C772.056 58.8132 771.674 59.8872 771.674 61.1284C771.674 62.6559 772.246 63.8732 773.392 64.7802C774.538 65.6872 776.042 66.4271 777.903 67C779.813 67.5251 781.889 68.0502 784.133 68.5753C786.186 69.0049 788.238 69.53 790.291 70.1506C792.391 70.7712 794.325 71.5827 796.091 72.5852C797.857 73.5876 799.265 74.9481 800.316 76.6667C801.414 78.3374 801.963 80.4617 801.963 83.0395C801.963 85.8082 801.223 88.2428 799.743 90.3432C798.263 92.4436 796.043 94.0667 793.084 95.2123C790.124 96.358 786.448 96.9309 782.056 96.9309ZM246.158 182V134.741H256.326L272.007 175.126H272.365L287.975 134.741H297.785V182H291.556L291.985 141.4H291.412L275.158 182H268.714L252.602 141.328H252.03L252.459 182H246.158ZM306.061 182L322.674 134.741H332.269L348.881 182H341.792L327.901 140.254H327.041L313.15 182H306.061ZM313.938 171.402V166.39H341.792V171.402H313.938ZM357.132 182V134.741H365.868L390.786 173.336H391.359L390.858 134.741H397.231V182H389.282L363.719 142.546H363.075L363.576 182H357.132ZM405.567 182L422.179 134.741H431.774L448.387 182H441.298L427.406 140.254H426.547L412.656 182H405.567ZM413.443 171.402V166.39H441.298V171.402H413.443ZM473.22 182.931C469.354 182.931 465.893 182.048 462.837 180.281C459.83 178.467 457.467 175.77 455.749 172.19C454.03 168.61 453.171 164.075 453.171 158.585C453.171 154.719 453.648 151.281 454.603 148.274C455.558 145.219 456.942 142.617 458.756 140.469C460.618 138.321 462.885 136.674 465.558 135.528C468.232 134.383 471.335 133.81 474.867 133.81C477.493 133.81 479.856 134.144 481.956 134.812C484.104 135.481 485.966 136.435 487.541 137.677C489.117 138.918 490.382 140.445 491.336 142.259C492.339 144.073 492.959 146.126 493.198 148.417L486.897 150.207C486.706 147.63 486.014 145.577 484.82 144.049C483.627 142.474 482.147 141.328 480.381 140.612C478.614 139.896 476.729 139.538 474.724 139.538C471.812 139.538 469.258 140.183 467.062 141.472C464.866 142.76 463.148 144.813 461.907 147.63C460.665 150.398 460.045 154.002 460.045 158.442C460.045 161.927 460.427 164.863 461.191 167.249C461.954 169.636 462.981 171.57 464.27 173.049C465.558 174.481 467.062 175.532 468.781 176.2C470.547 176.821 472.409 177.131 474.366 177.131C476.896 177.131 479.068 176.653 480.882 175.699C482.696 174.744 484.152 173.312 485.25 171.402C486.396 169.445 487.112 166.987 487.398 164.027H476.586V158.8H493.914V165.889V182H488.544L489.904 169.111H488.83C488.21 172.214 487.231 174.792 485.894 176.844C484.605 178.849 482.911 180.377 480.81 181.427C478.758 182.43 476.228 182.931 473.22 182.931ZM504.887 182V134.741H511.475V182H504.887ZM508.252 182V176.343H538.04V182H508.252ZM508.252 160.519V155.22H534.675V160.519H508.252ZM508.252 140.326V134.741H537.968V140.326H508.252ZM546.983 182V134.741H557.151L572.832 175.126H573.19L588.8 134.741H598.61V182H592.38L592.81 141.4H592.237L575.983 182H569.538L553.427 141.328H552.854L553.284 182H546.983ZM610.896 182V134.741H617.484V182H610.896ZM614.261 182V176.343H644.049V182H614.261ZM614.261 160.519V155.22H640.684V160.519H614.261ZM614.261 140.326V134.741H643.977V140.326H614.261ZM652.992 182V134.741H661.728L686.646 173.336H687.219L686.718 134.741H693.091V182H685.142L659.579 142.546H658.935L659.436 182H652.992ZM715.462 182V134.741H722.049V182H715.462ZM701.069 140.469V134.741H736.442V140.469H701.069ZM779.038 182.931C775.887 182.931 773.118 182.597 770.732 181.928C768.392 181.26 766.411 180.281 764.788 178.993C763.213 177.656 762.044 176.033 761.28 174.123C760.516 172.214 760.182 169.994 760.277 167.464L766.22 166.175C766.03 168.658 766.435 170.734 767.438 172.405C768.44 174.076 769.968 175.341 772.02 176.2C774.073 177.012 776.484 177.417 779.253 177.417C781.926 177.417 784.193 177.083 786.055 176.415C787.917 175.746 789.301 174.816 790.208 173.622C791.163 172.429 791.64 171.068 791.64 169.541C791.64 167.822 791.091 166.462 789.993 165.459C788.895 164.457 787.416 163.693 785.554 163.168C783.74 162.595 781.711 162.07 779.467 161.593C777.272 161.115 775.076 160.566 772.88 159.946C770.684 159.325 768.703 158.537 766.937 157.583C765.218 156.58 763.81 155.291 762.712 153.716C761.662 152.093 761.137 150.04 761.137 147.558C761.137 144.742 761.829 142.307 763.213 140.254C764.645 138.202 766.65 136.626 769.228 135.528C771.806 134.383 774.837 133.81 778.322 133.81C781.759 133.81 784.814 134.359 787.487 135.457C790.208 136.555 792.356 138.178 793.932 140.326C795.507 142.426 796.342 145.028 796.438 148.131L790.28 149.635C790.28 147.916 789.969 146.412 789.349 145.123C788.776 143.787 787.965 142.713 786.914 141.901C785.864 141.042 784.599 140.398 783.119 139.968C781.639 139.491 780.016 139.252 778.25 139.252C776.102 139.252 774.216 139.586 772.593 140.254C770.97 140.923 769.705 141.83 768.798 142.975C767.891 144.121 767.438 145.481 767.438 147.057C767.438 148.919 768.082 150.398 769.371 151.496C770.708 152.546 772.426 153.382 774.527 154.002C776.627 154.623 778.871 155.196 781.258 155.721C783.31 156.151 785.315 156.676 787.272 157.296C789.277 157.869 791.091 158.657 792.714 159.659C794.337 160.614 795.626 161.879 796.581 163.454C797.536 165.03 798.013 167.035 798.013 169.469C798.013 172.19 797.297 174.553 795.865 176.558C794.481 178.563 792.38 180.138 789.564 181.284C786.747 182.382 783.239 182.931 779.038 182.931ZM817.934 182V166.748L801.394 134.741H809.055L821.085 160.304H821.443L833.401 134.741H841.063L824.522 166.677V182H817.934ZM863.929 182.931C860.778 182.931 858.009 182.597 855.623 181.928C853.284 181.26 851.302 180.281 849.679 178.993C848.104 177.656 846.935 176.033 846.171 174.123C845.407 172.214 845.073 169.994 845.168 167.464L851.112 166.175C850.921 168.658 851.326 170.734 852.329 172.405C853.331 174.076 854.859 175.341 856.912 176.2C858.964 177.012 861.375 177.417 864.144 177.417C866.817 177.417 869.084 177.083 870.946 176.415C872.808 175.746 874.192 174.816 875.099 173.622C876.054 172.429 876.531 171.068 876.531 169.541C876.531 167.822 875.982 166.462 874.884 165.459C873.786 164.457 872.307 163.693 870.445 163.168C868.631 162.595 866.602 162.07 864.358 161.593C862.163 161.115 859.967 160.566 857.771 159.946C855.575 159.325 853.594 158.537 851.828 157.583C850.109 156.58 848.701 155.291 847.603 153.716C846.553 152.093 846.028 150.04 846.028 147.558C846.028 144.742 846.72 142.307 848.104 140.254C849.536 138.202 851.541 136.626 854.119 135.528C856.697 134.383 859.728 133.81 863.213 133.81C866.65 133.81 869.705 134.359 872.378 135.457C875.099 136.555 877.247 138.178 878.823 140.326C880.398 142.426 881.233 145.028 881.329 148.131L875.171 149.635C875.171 147.916 874.861 146.412 874.24 145.123C873.667 143.787 872.856 142.713 871.805 141.901C870.755 141.042 869.49 140.398 868.01 139.968C866.53 139.491 864.907 139.252 863.141 139.252C860.993 139.252 859.107 139.586 857.484 140.254C855.861 140.923 854.596 141.83 853.689 142.975C852.782 144.121 852.329 145.481 852.329 147.057C852.329 148.919 852.973 150.398 854.262 151.496C855.599 152.546 857.317 153.382 859.418 154.002C861.518 154.623 863.762 155.196 866.149 155.721C868.201 156.151 870.206 156.676 872.163 157.296C874.168 157.869 875.982 158.657 877.605 159.659C879.228 160.614 880.517 161.879 881.472 163.454C882.427 165.03 882.904 167.035 882.904 169.469C882.904 172.19 882.188 174.553 880.756 176.558C879.372 178.563 877.271 180.138 874.455 181.284C871.638 182.382 868.13 182.931 863.929 182.931ZM901.956 182V134.741H908.544V182H901.956ZM887.564 140.469V134.741H922.936V140.469H887.564ZM930.881 182V134.741H937.468V182H930.881ZM934.246 182V176.343H964.034V182H934.246ZM934.246 160.519V155.22H960.668V160.519H934.246ZM934.246 140.326V134.741H963.962V140.326H934.246ZM972.977 182V134.741H983.144L998.826 175.126H999.184L1014.79 134.741H1024.6V182H1018.37L1018.8 141.4H1018.23L1001.98 182H995.532L979.421 141.328H978.848L979.278 182H972.977Z" fill="url(#paint1_linear_52_9)"/>
<defs>
<linearGradient id="paint0_linear_52_9" x1="100" y1="6" x2="100" y2="224" gradientUnits="userSpaceOnUse">
<stop stop-color="white"/>
<stop offset="1" stop-color="#FFDED5"/>
</linearGradient>
<linearGradient id="paint1_linear_52_9" x1="635.5" y1="29" x2="635.5" y2="201" gradientUnits="userSpaceOnUse">
<stop stop-color="white"/>
<stop offset="1" stop-color="#FFDED5"/>
</linearGradient>
</defs>
</svg>
